<svg width="16" height="16" viewBox="0 0 16 16" fill="none" xmlns="http://www.w3.org/2000/svg">
<mask id="path-1-inside-1_437_57" fill="white">
<path d="M12.1716 6.77822L6.8076 1.41421L8.2218 0L16 7.77822L8.2218 15.5563L6.8076 14.1421L12.1716 8.77822H0V6.77822H12.1716Z"/>
</mask>
<path d="M12.1716 6.77822L6.8076 1.41421L8.2218 0L16 7.77822L8.2218 15.5563L6.8076 14.1421L12.1716 8.77822H0V6.77822H12.1716Z" fill="#2C2C2C"/>
<path d="M12.1716 6.77822V8.77822H17L13.5858 5.36401L12.1716 6.77822ZM6.8076 1.41421L5.39338 1.28714e-06L3.97918 1.41421L5.39339 2.82842L6.8076 1.41421ZM8.2218 0L9.63601 -1.41421L8.2218 -2.82843L6.80758 -1.41421L8.2218 0ZM16 7.77822L17.4142 9.19244L18.8284 7.77823L17.4142 6.36401L16 7.77822ZM8.2218 15.5563L6.80759 16.9705L8.22179 18.3847L9.636 16.9705L8.2218 15.5563ZM6.8076 14.1421L5.3934 12.7279L3.97916 14.1421L5.39339 15.5563L6.8076 14.1421ZM12.1716 8.77822L13.5858 10.1924L17.0001 6.77822H12.1716V8.77822ZM0 8.77822H-2V10.7782H0V8.77822ZM0 6.77822V4.77822H-2V6.77822H0ZM13.5858 5.36401L8.22182 -2.46252e-06L5.39339 2.82842L10.7574 8.19243L13.5858 5.36401ZM8.22182 2.82842L9.63602 1.41421L6.80758 -1.41421L5.39338 1.28714e-06L8.22182 2.82842ZM6.80758 1.41421L14.5858 9.19243L17.4142 6.36401L9.63601 -1.41421L6.80758 1.41421ZM14.5858 6.364L6.8076 14.1421L9.636 16.9705L17.4142 9.19244L14.5858 6.364ZM9.63601 14.1421L8.22181 12.7279L5.39339 15.5563L6.80759 16.9705L9.63601 14.1421ZM8.2218 15.5563L13.5858 10.1924L10.7574 7.36399L5.3934 12.7279L8.2218 15.5563ZM12.1716 6.77822H0V10.7782H12.1716V6.77822ZM2 8.77822V6.77822H-2V8.77822H2ZM0 8.77822H12.1716V4.77822H0V8.77822Z" fill="black" fill-opacity="0.2" mask="url(#path-1-inside-1_437_57)"/>
</svg>
