<svg width="24" height="15" viewBox="0 0 24 15" fill="none" xmlns="http://www.w3.org/2000/svg">
<path d="M6.98059 0C7.67333 0 8.31277 0.0530038 8.89892 0.212014C9.48508 0.318021 9.96464 0.530035 10.391 0.795053C10.8172 1.06007 11.137 1.43108 11.3501 1.90812C11.5632 2.38515 11.6699 2.96819 11.6699 3.60423C11.6699 4.34628 11.51 4.98237 11.137 5.45937C10.8172 5.93637 10.2844 6.36044 9.64494 6.67844C10.5508 6.9434 11.2435 7.42051 11.6699 8.05651C12.0961 8.69251 12.3625 9.48761 12.3625 10.3887C12.3625 11.1308 12.2027 11.7668 11.9363 12.2968C11.6699 12.8268 11.2435 13.3038 10.7639 13.6219C10.2844 13.9399 9.69823 14.2049 9.05879 14.3639C8.41934 14.5229 7.7799 14.629 7.14045 14.629H0V0H6.98059ZM6.5543 5.93637C7.14045 5.93637 7.62004 5.77737 7.99305 5.51241C8.36605 5.24733 8.52591 4.7703 8.52591 4.18726C8.52591 3.86924 8.47262 3.55122 8.36605 3.33921C8.25948 3.1272 8.09962 2.96819 7.88647 2.80917C7.67333 2.70317 7.46018 2.59716 7.19374 2.54416C6.9273 2.49115 6.66087 2.49115 6.34115 2.49115H3.2505V5.93637H6.5543ZM6.71416 12.1908C7.03388 12.1908 7.35361 12.1378 7.62004 12.0848C7.88647 12.0318 8.15291 11.9258 8.36605 11.7668C8.5792 11.6078 8.73906 11.4488 8.89892 11.1837C9.0055 10.9187 9.11208 10.6007 9.11208 10.2297C9.11208 9.48761 8.89893 8.95758 8.47263 8.58654C8.04633 8.26855 7.46018 8.10954 6.76744 8.10954H3.2505V12.1908H6.71416ZM16.9985 12.1378C17.4249 12.5619 18.0642 12.7738 18.9169 12.7738C19.503 12.7738 20.0359 12.6148 20.4621 12.3498C20.8885 12.0318 21.1549 11.7137 21.2616 11.3957H23.8726C23.4462 12.6678 22.8068 13.5689 21.9542 14.152C21.1016 14.682 20.0892 15 18.8635 15C18.0109 15 17.2649 14.841 16.5723 14.5759C15.8795 14.311 15.3466 13.9399 14.8671 13.4099C14.3875 12.9328 14.0144 12.3498 13.8013 11.6608C13.5349 10.9718 13.4283 10.2297 13.4283 9.38165C13.4283 8.58654 13.5349 7.84447 13.8013 7.15544C14.0678 6.46641 14.4408 5.88333 14.9204 5.3533C15.3999 4.87631 15.9861 4.45228 16.6256 4.18726C17.3183 3.92225 18.0109 3.76324 18.8635 3.76324C19.7695 3.76324 20.5688 3.92225 21.2616 4.29327C21.9542 4.6643 22.4871 5.08834 22.9134 5.72433C23.3397 6.30741 23.6595 6.99644 23.8726 7.73851C23.9791 8.48058 24.0324 9.22254 23.9791 10.0707H16.2525C16.2525 10.9187 16.5723 11.7137 16.9985 12.1378ZM20.3556 6.57248C19.9826 6.20144 19.3964 5.98941 18.7037 5.98941C18.2242 5.98941 17.8511 6.09537 17.5314 6.25437C17.2116 6.41337 16.9985 6.6254 16.7854 6.83744C16.5723 7.04948 16.4656 7.31444 16.4123 7.57951C16.3591 7.84447 16.3058 8.05651 16.3058 8.26855H21.1016C20.9951 7.47344 20.7286 6.9434 20.3556 6.57248ZM15.6664 1.00706H21.6345V2.43815H15.6664V1.00706Z" fill="#4C4C4C"/>
</svg>
