<svg width="38" height="43" viewBox="0 0 38 43" fill="none" xmlns="http://www.w3.org/2000/svg">
<path d="M0.305706 13.0303C0.305706 10.6281 1.4837 9.42706 3.83967 9.42706C5.31793 9.42706 7.62772 11.0901 10.769 14.4162C13.587 17.4189 15.5503 18.9203 16.659 18.9203C17.4905 18.9203 17.9062 18.4583 17.9062 17.5344C17.9062 16.1023 17.3981 13.3999 16.3818 9.42706C15.6427 6.65532 15.2731 4.85369 15.2731 4.02217C15.2731 3.14445 15.6196 2.33602 16.3125 1.59689C17.0516 0.811568 17.9524 0.418904 19.0149 0.418904C21.4633 0.418904 22.6875 1.71238 22.6875 4.29934C22.6875 5.03847 22.2717 7.09418 21.4402 10.4665C20.4701 14.3007 19.9851 16.7029 19.9851 17.673C19.9851 18.5507 20.4008 18.9896 21.2323 18.9896C22.341 18.9896 24.1427 17.6499 26.6372 14.9705C30.0095 11.3673 32.5734 9.56564 34.3288 9.56564C36.6848 9.56564 37.8628 10.7667 37.8628 13.1689C37.8628 14.5086 37.1929 15.548 35.8533 16.2871C34.5136 17.0262 32.0421 17.8578 28.4389 18.7817C24.466 19.798 22.4796 20.7912 22.4796 21.7613C22.4796 22.8238 24.7432 23.9325 29.2704 25.0874C32.6427 25.9651 34.9062 26.7735 36.0611 27.5127C37.2622 28.2056 37.8628 29.1526 37.8628 30.3537C37.8628 31.3238 37.5163 32.2015 36.8234 32.9868C36.1766 33.726 35.3451 34.0955 34.3288 34.0955C32.6658 34.0955 30.1943 32.3401 26.9144 28.8292C24.0965 25.8265 22.1562 24.3252 21.0937 24.3252C20.3546 24.3252 19.9851 24.8564 19.9851 25.9189C19.9851 27.2124 20.447 29.6838 21.3709 33.3333C22.1101 36.336 22.4796 38.2762 22.4796 39.154C22.4796 40.0779 22.1332 40.9325 21.4402 41.7178C20.7935 42.5031 19.9389 42.8958 18.8764 42.8958C17.8139 42.8958 16.913 42.5031 16.1739 41.7178C15.481 40.9325 15.1345 40.1472 15.1345 39.3618C15.1345 38.2531 15.6889 35.7124 16.7976 31.7396C17.6291 28.5983 18.0448 26.6349 18.0448 25.8496C18.0448 24.8333 17.6753 24.3252 16.9361 24.3252C15.9198 24.3252 13.9796 25.7803 11.1155 28.6906C7.60462 32.2015 5.08696 33.9569 3.5625 33.9569C1.25272 33.9569 0.0978259 32.8021 0.0978259 30.4923C0.0978259 29.0602 0.721467 27.9977 1.96875 27.3048C3.21603 26.6118 5.47962 25.8496 8.75951 25.0181C13.2867 23.8632 15.5503 22.7776 15.5503 21.7613C15.5503 20.6988 13.125 19.5439 8.27446 18.2966C5.04076 17.4189 2.89266 16.6567 1.83016 16.0099C0.813859 15.3632 0.305706 14.37 0.305706 13.0303Z" fill="white"/>
</svg>
