<svg width="26" height="30" viewBox="0 0 26 30" fill="none" xmlns="http://www.w3.org/2000/svg">
<path d="M0.265625 9.15625C0.265625 7.53125 1.0625 6.71875 2.65625 6.71875C3.65625 6.71875 5.21875 7.84375 7.34375 10.0938C9.25 12.125 10.5781 13.1406 11.3281 13.1406C11.8906 13.1406 12.1719 12.8281 12.1719 12.2031C12.1719 11.2344 11.8281 9.40625 11.1406 6.71875C10.6406 4.84375 10.3906 3.625 10.3906 3.0625C10.3906 2.46875 10.625 1.92188 11.0938 1.42188C11.5938 0.890625 12.2031 0.625 12.9219 0.625C14.5781 0.625 15.4062 1.5 15.4062 3.25C15.4062 3.75 15.125 5.14062 14.5625 7.42188C13.9062 10.0156 13.5781 11.6406 13.5781 12.2969C13.5781 12.8906 13.8594 13.1875 14.4219 13.1875C15.1719 13.1875 16.3906 12.2813 18.0781 10.4688C20.3594 8.03125 22.0938 6.8125 23.2812 6.8125C24.875 6.8125 25.6719 7.625 25.6719 9.25C25.6719 10.1562 25.2188 10.8594 24.3125 11.3594C23.4062 11.8594 21.7344 12.4219 19.2969 13.0469C16.6094 13.7344 15.2656 14.4062 15.2656 15.0625C15.2656 15.7812 16.7969 16.5312 19.8594 17.3125C22.1406 17.9063 23.6719 18.4531 24.4531 18.9531C25.2656 19.4219 25.6719 20.0625 25.6719 20.875C25.6719 21.5312 25.4375 22.125 24.9688 22.6562C24.5312 23.1562 23.9688 23.4062 23.2812 23.4062C22.1562 23.4062 20.4844 22.2188 18.2656 19.8438C16.3594 17.8125 15.0469 16.7969 14.3281 16.7969C13.8281 16.7969 13.5781 17.1563 13.5781 17.875C13.5781 18.75 13.8906 20.4219 14.5156 22.8906C15.0156 24.9219 15.2656 26.2344 15.2656 26.8281C15.2656 27.4531 15.0312 28.0312 14.5625 28.5625C14.125 29.0938 13.5469 29.3594 12.8281 29.3594C12.1094 29.3594 11.5 29.0938 11 28.5625C10.5312 28.0312 10.2969 27.5 10.2969 26.9688C10.2969 26.2188 10.6719 24.5 11.4219 21.8125C11.9844 19.6875 12.2656 18.3594 12.2656 17.8281C12.2656 17.1406 12.0156 16.7969 11.5156 16.7969C10.8281 16.7969 9.51562 17.7812 7.57812 19.75C5.20312 22.125 3.5 23.3125 2.46875 23.3125C0.90625 23.3125 0.125 22.5312 0.125 20.9688C0.125 20 0.546875 19.2812 1.39062 18.8125C2.23438 18.3438 3.76562 17.8281 5.98438 17.2656C9.04688 16.4844 10.5781 15.75 10.5781 15.0625C10.5781 14.3438 8.9375 13.5625 5.65625 12.7188C3.46875 12.125 2.01562 11.6094 1.29688 11.1719C0.609375 10.7344 0.265625 10.0625 0.265625 9.15625Z" fill="#333232"/>
</svg>
