<svg width="26" height="26" viewBox="0 0 26 26" fill="none" xmlns="http://www.w3.org/2000/svg">
<path d="M5.55528 22.2573C5.0386 22.2573 4.55422 22.0312 4.10214 21.5792C3.65005 21.1271 3.424 20.6427 3.424 20.126C3.424 19.577 3.68234 19.0281 4.16672 18.5437C4.87714 17.8333 5.81361 17.3166 6.94383 16.7354C7.94488 16.2187 9.01052 15.6051 10.2376 14.6687C9.97928 14.3135 9.78553 13.8614 9.68865 13.377C8.17093 13.603 7.00842 13.8937 5.91049 14.2489C4.68339 14.6364 3.68234 14.927 2.68129 14.927C1.29273 14.927 0.485432 14.1197 0.485432 12.828C0.485432 11.5363 1.29273 10.729 2.68129 10.729C3.68234 10.729 4.68339 11.0197 5.91049 11.4072C7.00842 11.7624 8.17093 12.0853 9.72094 12.3113C9.78553 11.827 9.97928 11.3749 10.2699 10.9874C9.01052 10.0509 7.94488 9.43736 6.94383 8.92069C5.81361 8.33943 4.87714 7.82276 4.16672 7.11234C3.68234 6.62796 3.424 6.07899 3.424 5.53003C3.424 5.01336 3.65005 4.52898 4.10214 4.07689C4.55422 3.6248 5.0386 3.39876 5.55528 3.39876C6.10424 3.39876 6.6532 3.65709 7.13758 4.14147C7.84801 4.8519 8.36468 5.78836 8.94594 6.91859C9.46261 7.91964 10.0762 8.98527 11.0126 10.2447C11.4001 9.95403 11.8522 9.76028 12.3366 9.6957C12.1106 8.14568 11.7876 6.98317 11.4324 5.88524C11.0449 4.65815 10.7543 3.65709 10.7543 2.65604C10.7543 1.26749 11.5616 0.460186 12.8533 0.460186C14.1449 0.460186 14.9522 1.26749 14.9522 2.65604C14.9522 3.65709 14.6616 4.65815 14.2741 5.88524C13.9189 6.98317 13.6283 8.14568 13.4022 9.66341C13.8866 9.76028 14.3387 9.95403 14.6939 10.2124C15.6304 8.98527 16.2439 7.91964 16.7606 6.91859C17.3419 5.78836 17.8585 4.8519 18.5689 4.14147C19.0533 3.65709 19.6023 3.39876 20.1513 3.39876C20.6679 3.39876 21.1523 3.6248 21.6044 4.07689C22.0565 4.52898 22.2825 5.01336 22.2825 5.53003C22.2825 6.07899 22.0242 6.62796 21.5398 7.11234C20.8294 7.82276 19.8929 8.33943 18.7627 8.92069C17.7617 9.43736 16.696 10.0509 15.4689 10.9874C15.7273 11.3749 15.921 11.7947 16.0179 12.3113C17.5356 12.0853 18.6981 11.7624 19.796 11.4072C21.0231 11.0197 22.0242 10.729 23.0252 10.729C24.4138 10.729 25.2211 11.5363 25.2211 12.828C25.2211 14.1197 24.4138 14.927 23.0252 14.927C22.0242 14.927 21.0231 14.6364 19.796 14.2489C18.6981 13.8937 17.5356 13.603 16.0179 13.377C15.921 13.8614 15.7595 14.3135 15.4689 14.701C16.7283 15.6051 17.7617 16.2187 18.7627 16.7354C19.8929 17.3166 20.8294 17.8333 21.5398 18.5437C22.0242 19.0281 22.2825 19.577 22.2825 20.126C22.2825 20.6427 22.0565 21.1271 21.6044 21.5792C21.1523 22.0312 20.6679 22.2573 20.1513 22.2573C19.6023 22.2573 19.0533 21.9989 18.5689 21.5146C17.8585 20.8041 17.3419 19.8677 16.7606 18.7375C16.2439 17.7364 15.6304 16.7031 14.7262 15.4437C14.3387 15.7343 13.8866 15.9281 13.4022 15.9926C13.6283 17.5104 13.9189 18.6729 14.2741 19.7708C14.6616 20.9979 14.9522 21.9989 14.9522 23C14.9522 24.3886 14.1449 25.1959 12.8533 25.1959C11.5616 25.1959 10.7543 24.3886 10.7543 23C10.7543 21.9989 11.0449 20.9979 11.4324 19.7708C11.7876 18.6729 12.1106 17.5104 12.3366 15.9926C11.8522 15.8958 11.4001 15.702 11.0126 15.4437C10.0762 16.6708 9.46261 17.7364 8.94594 18.7375C8.36468 19.8677 7.84801 20.8041 7.13758 21.5146C6.6532 21.9989 6.10424 22.2573 5.55528 22.2573Z" fill="#333232"/>
</svg>
